<?xml version="1.0" encoding="utf-8"?>
<!-- Generator: Adobe Illustrator 24.0.2, SVG Export Plug-In . SVG Version: 6.00 Build 0)  -->
<svg version="1.1" id="Calque_1" xmlns="http://www.w3.org/2000/svg" xmlns:xlink="http://www.w3.org/1999/xlink" x="0px" y="0px"
	 viewBox="0 0 500 500" style="enable-background:new 0 0 500 500;" xml:space="preserve">
<g>
	<path d="M246.1,153.7c42.2,0,84.4,0,126.6,0c8.4,0,12.1,4,11.5,12.5c-2.2,30.2-4.3,60.4-6.5,90.5c-2.3,31.1-4.6,62.3-6.8,93.4
		c-1.7,23.7-3.5,47.4-5.2,71.1c-1.4,18.9-17.3,33.6-36.6,33.7c-18.2,0.1-36.3,0-54.5,0c-37,0-74.1,0-111.1,0c-15.5,0-29-9-34.3-23.3
		c-1.6-4.3-2.4-9-2.7-13.6c-2.2-27.8-4.1-55.6-6.1-83.5c-2-27.5-4.1-54.9-6.1-82.4c-2-27.8-4-55.6-6-83.5c-0.1-1.5-0.3-3-0.4-4.5
		c-0.2-6.1,4-10.6,10.1-10.6c30.3,0,60.5,0,90.8,0C221.2,153.7,233.6,153.7,246.1,153.7z M185,294.7c-0.2-5.6-0.5-14.7-0.8-23.9
		c-0.8-25.9-1.7-51.9-2.4-77.8c-0.2-6.1-4.7-9.9-9.5-9.7c-5.3,0.2-8.8,4.4-8.6,10.5c0.2,6.7,0.4,13.3,0.6,20
		c1.5,46.7,3,93.4,4.5,140.1c0.5,16.4,1,32.8,1.6,49.2c0.1,4.1,2.5,7.4,6.2,8.6c6.3,2.1,12-2.6,11.8-9.7
		C187.3,367.4,186.2,332.8,185,294.7z M306.8,297.4C306.8,297.4,306.8,297.4,306.8,297.4c-1,34.8-2,69.6-2.9,104.4
		c-0.1,2.3,0.8,4.9,2,6.8c2,3.2,6.2,4.2,9.8,2.9c3.8-1.3,6-4.5,6.2-9.2c0.9-30,1.7-60,2.6-90c0.5-17.8,1-35.6,1.5-53.4
		c0.6-22.1,1.3-44.2,1.8-66.3c0.1-5.4-3.7-9.4-8.8-9.5c-5-0.1-9,3.9-9.2,9.2C308.8,227.4,307.8,262.4,306.8,297.4z M237.1,297.4
		C237.1,297.4,237.1,297.4,237.1,297.4c0,34.1,0,68.3,0,102.4c0,1.5-0.1,3,0.1,4.5c0.5,4.1,3.9,7.4,8,7.8c4.1,0.4,8.2-2.1,9.4-6.1
		c0.4-1.5,0.5-3.1,0.5-4.7c0-69.1,0-138.1,0-207.2c0-0.9,0-1.8,0-2.6c-0.5-5.6-5.9-9.4-11.3-7.9c-4.4,1.2-6.7,4.6-6.7,10.1
		C237.1,228.3,237.1,262.8,237.1,297.4z"/>
	<path d="M165.4,93.1c0.4-5.6,0.3-10.8,1.3-15.8c3.4-17.7,18.6-30.4,36.5-30.5c29.9-0.2,59.8-0.2,89.7,0
		c20.6,0.1,36.9,16.9,37.3,37.6c0,2.9,0,5.7,0,8.8c1.2,0,2.1,0,3,0c12.8,0,25.6,0,38.4,0c14.9,0,27.2,12.1,27.4,27
		c0,1.8,0,3.7,0,5.5c-0.1,5.4-3.6,9.3-9,9.9c-0.9,0.1-1.8,0.1-2.6,0.1c-80.4,0-160.7,0-241.1,0c-13.8,0-27.5,0-41.3,0
		c-7.7,0-11.5-3.8-11.4-11.5c0.1-3.7,0.2-7.6,1.1-11.2c3.1-11.6,13.8-19.7,25.9-19.8c14-0.1,28.1,0,42.1,0
		C163.6,93.1,164.5,93.1,165.4,93.1z M188.2,93c40.1,0,79.6,0,119.3,0c0-2.4-0.1-4.6,0-6.9c0.5-10.1-7.4-17.1-16.9-16.9
		c-25.3,0.3-50.7,0.1-76.1,0.1c-3.7,0-7.4-0.1-11.1,0c-7.1,0.2-13.4,5-14.6,11.8C188.3,84.9,188.4,88.9,188.2,93z"/>
</g>
</svg>
