<?xml version="1.0" encoding="utf-8"?>
<!-- Generator: Adobe Illustrator 24.0.2, SVG Export Plug-In . SVG Version: 6.00 Build 0)  -->
<svg version="1.1" id="Calque_1" xmlns="http://www.w3.org/2000/svg" xmlns:xlink="http://www.w3.org/1999/xlink" x="0px" y="0px"
	 viewBox="0 0 500 500" style="enable-background:new 0 0 500 500;" xml:space="preserve">
<path d="M253.6,37.7c-111.2,0-201.4,90.2-201.4,201.4c0,35.4,9.1,68.6,25.2,97.6l-34.6,92.2c-2.3,4,1.6,8.8,6,7.2l99.9-25.1
	c30.6,18.7,66.5,29.5,105,29.5c111.2,0,201.4-90.2,201.4-201.4S364.8,37.7,253.6,37.7z M181.6,262c-12.6,0-22.9-10.2-22.9-22.9
	c0-12.6,10.2-22.9,22.9-22.9c12.6,0,22.9,10.2,22.9,22.9C204.4,251.7,194.2,262,181.6,262z M253.6,262c-12.6,0-22.9-10.2-22.9-22.9
	c0-12.6,10.2-22.9,22.9-22.9c12.6,0,22.9,10.2,22.9,22.9C276.4,251.7,266.2,262,253.6,262z M325.6,262c-12.6,0-22.9-10.2-22.9-22.9
	c0-12.6,10.2-22.9,22.9-22.9c12.6,0,22.9,10.2,22.9,22.9C348.4,251.7,338.2,262,325.6,262z"/>
</svg>
