<?xml version="1.0" encoding="utf-8"?>
<!-- Generator: Adobe Illustrator 24.0.2, SVG Export Plug-In . SVG Version: 6.00 Build 0)  -->
<svg version="1.1" id="Calque_1" xmlns="http://www.w3.org/2000/svg" xmlns:xlink="http://www.w3.org/1999/xlink" x="0px" y="0px"
	 viewBox="0 0 500 500" style="enable-background:new 0 0 500 500;" xml:space="preserve">
<path d="M229.3,108.7c30.1,0,57.4,0,86.3,0c0.9,10.4,1.7,20.1,2.6,30.9c10.5,0,20.3,0,32.5,0c0-9.9,0.2-19.1,0-28.3
	c-0.6-26.1-11.1-36.9-36.8-37.1c-26.9-0.3-53.9-0.1-83.4-0.1c-0.6-13.2-1.2-25.6-1.9-41.1c-48.9,15.3-96.4,29.2-142.9,45.9
	c-7.7,2.8-15.6,17.8-15.7,27.3c-1.2,95.1-1,190.1-0.6,285.2c0.1,21.9,12,32.1,35.2,32.2c68.8,0.2,137.6,0.2,206.3,0
	c30.1-0.1,39.6-9.8,39.8-40c0.1-7.9,0-15.9,0-25.1c-11.6,0-21.3,0-32.3,0c-0.8,10.1-1.6,19.8-2.5,30.5c-59.3,0-117.6,0-175.8,0
	c-0.4-1-0.8-2-1.2-3c21.9-9,43.3-19.8,65.9-26.3c21.1-6.1,25.4-17.9,25-38.1c-1.3-62.7-0.5-125.4-0.5-188.1
	C229.3,126,229.3,118.7,229.3,108.7z"/>
<path d="M384.9,320.1c22.6-22.7,47.1-47.3,71.4-71.7c-23.8-23.5-48.5-47.8-74.8-73.8c-5.8,6.6-12.4,14-19.9,22.5
	c9.8,10.6,19.7,21.1,32.3,34.6c-41.9,0-80.3,0-120.3,0c0,11.8,0,21.4,0,33.6c40.5,0,81.1,0,127.7,0c-15.9,14.1-27.1,24.1-40.5,36
	C369.3,307.9,377.4,314.3,384.9,320.1z"/>
</svg>
