<?xml version="1.0" encoding="utf-8"?>
<!-- Generator: Adobe Illustrator 24.0.2, SVG Export Plug-In . SVG Version: 6.00 Build 0)  -->
<svg version="1.1" id="Calque_1" xmlns="http://www.w3.org/2000/svg" xmlns:xlink="http://www.w3.org/1999/xlink" x="0px" y="0px"
	 viewBox="0 0 500 500" style="enable-background:new 0 0 500 500;" xml:space="preserve">
<style type="text/css">
	.st0{fill:#FFFFFF;}
</style>
<path d="M364.5,131.6l-31.7,55.5c13.5,17.4,21.6,39.2,21.6,62.9c0,56.7-46,102.7-102.7,102.7c-4.4,0-8.7-0.3-13-0.8L216,391.7
	c13.7,2.9,28.2,4.6,43.5,4.6c144.5,0,199.3-145.7,199.3-145.7S436.1,174.2,364.5,131.6z M149,250c0-56.7,46-102.7,102.7-102.7
	c22.6,0,43.4,7.3,60.4,19.7l27.4-47.9c-22.9-9.4-49.8-15.3-81.3-15.3c-156.9,0-213.6,146.9-213.6,146.9s47.2,97.7,143.7,133.1
	l22.6-39.5C174.5,328.4,149,292.2,149,250z"/>
<path d="M292.6,201l-62.3,109.1c-24.7-8.8-42.4-32.4-42.4-60.1c0-35.2,28.6-63.8,63.8-63.8C267.3,186.2,281.5,191.8,292.6,201z"/>
<path d="M315.5,250c0,32.1-23.8,58.7-54.7,63.2l49.9-87.4C313.8,233.2,315.5,241.4,315.5,250z"/>
<g>
	<line class="st0" x1="363.8" y1="52.5" x2="141" y2="442.5"/>
	<path d="M141,456.5c-2.4,0-4.7-0.6-6.9-1.8c-6.7-3.8-9-12.4-5.2-19.1l222.7-390c3.8-6.7,12.4-9,19.1-5.2c6.7,3.8,9,12.4,5.2,19.1
		l-222.8,390C150.6,454,145.8,456.5,141,456.5z"/>
</g>
</svg>
