<?xml version="1.0" encoding="utf-8"?>
<!-- Generator: Adobe Illustrator 24.0.2, SVG Export Plug-In . SVG Version: 6.00 Build 0)  -->
<svg version="1.1" id="Calque_1" xmlns="http://www.w3.org/2000/svg" xmlns:xlink="http://www.w3.org/1999/xlink" x="0px" y="0px"
	 viewBox="0 0 500 500" style="enable-background:new 0 0 500 500;" xml:space="preserve">
<g>
	<path d="M425,231.5c-10.7,0-19.3,8.6-19.3,19.3v131.2c0,18.9-15.4,34.4-34.4,34.4H109c-18.9,0-34.4-15.4-34.4-34.4V119.6
		c0-18.9,15.4-34.4,34.4-34.4h131.2c10.7,0,19.3-8.6,19.3-19.3c0-10.7-8.6-19.3-19.3-19.3H109c-40.2,0-73,32.7-73,73v262.4
		c0,40.2,32.7,73,73,73h262.4c40.2,0,73-32.7,73-73V250.8C444.3,240.1,435.7,231.5,425,231.5z"/>
	<path d="M402.6,149c-19.7-19.6-40.4-40.2-61.5-61.2c-57.9,58.1-115.8,116.4-172.9,173.7c19.9,20.2,40.6,41.1,61.5,62.2
		C287.2,265.6,345,207.2,402.6,149z"/>
	<path d="M447.5,80.1c-11.7-12.4-23.8-24.4-36.1-36.1c-7.9-7.6-17.4-8.5-25.8-1.4c-10.7,9.1-20.4,19.4-29.4,28.2
		c21.9,21.9,42.5,42.5,64.8,64.8c8.4-9,17.8-18.6,26.6-28.7C455.2,98.2,455.2,88.3,447.5,80.1z"/>
	<path d="M138.2,352.3c26.2-4.6,50.4-8.9,74.7-13.2c-20.8-20.8-40.8-40.8-61.7-61.7C146.8,302.3,142.6,326.5,138.2,352.3z"/>
</g>
</svg>
