<?xml version="1.0" encoding="utf-8"?>
<!-- Generator: Adobe Illustrator 24.0.2, SVG Export Plug-In . SVG Version: 6.00 Build 0)  -->
<svg version="1.1" id="Calque_1" xmlns="http://www.w3.org/2000/svg" xmlns:xlink="http://www.w3.org/1999/xlink" x="0px" y="0px"
	 viewBox="0 0 500 500" style="enable-background:new 0 0 500 500;" xml:space="preserve">
<path d="M396.8,165.4c0-6.4,0.1-12.1,0-17.9c-0.3-15.6-7.5-22.8-22.9-22.8c-82.3,0-164.6,0-246.9,0c-12.4,0-20.4,7.5-21.1,20
	c-0.3,6.6-0.1,13.3-0.1,20.7C203.3,165.4,299.8,165.4,396.8,165.4z"/>
<path d="M335,82.9c-55.8-0.1-111.7-0.1-167.5,0c-11.5,0-18,6.8-19.2,19.9c69,0,138,0,207.1,0C354.3,89.7,347.3,82.9,335,82.9z"/>
<path d="M425,153.3v33.4H77v-33.4l-33.5,38.2l40,225.5h335l37.9-224.5L425,153.3z M332.7,285.4c-0.7,9.6-7.2,14.6-16.7,14.7
	c-21.6,0.1-43.3,0.1-64.9,0.1c-21.7,0-43.3-0.1-64.9-0.1c-9.5,0-16-5-16.7-14.7c-1-15.6-0.3-31.4-0.3-47.6h27.5v32.6h108.8v-32.6
	H333C333,254,333.8,269.8,332.7,285.4z"/>
</svg>
