<?xml version="1.0" encoding="utf-8"?>
<!-- Generator: Adobe Illustrator 24.0.2, SVG Export Plug-In . SVG Version: 6.00 Build 0)  -->
<svg version="1.1" id="Calque_1" xmlns="http://www.w3.org/2000/svg" xmlns:xlink="http://www.w3.org/1999/xlink" x="0px" y="0px"
	 viewBox="0 0 50 50" style="enable-background:new 0 0 50 50;" xml:space="preserve">
<style type="text/css">
	.st0{fill:#60C1FF;}
</style>
<g>
	<path class="st0" d="M34.1,22.1h-0.9l-0.5,3.6h1.1c0.7,0,1.4-0.1,1.9-0.6c0.5-0.4,0.5-1,0.5-1.4c0-0.4-0.1-0.8-0.4-1.1
		C35.3,22.1,34.5,22.1,34.1,22.1z"/>
	<path class="st0" d="M46.7,33c-2.5,0-3.9-1.1-4.6-1.8c-0.8-0.8-1.8-2.3-1.8-4.6c0-2.3,0.9-4.2,2.1-5.4c1.1-1.1,2.9-2.1,5.3-2.1
		c0.7,0,1.2,0.1,1.7,0.2C46.9,8.6,37.2,0.6,25.6,0.6C12.1,0.6,1.2,11.5,1.2,25c0,4.3,1.1,8.3,3.1,11.8L0.1,48
		c-0.3,0.5,0.2,1.1,0.7,0.9l12.1-3c3.7,2.3,8.1,3.6,12.7,3.6c10.8-0.1,19.9-7,23.1-16.7C48.2,32.9,47.5,33,46.7,33z M22.8,32.7h-2.6
		l-1.8-8l-3.7,8h-2.6L9.3,19.6h3.1l1.7,8.7l3.9-8.7h2.1l1.7,8.7l3.9-8.7h3.2L22.8,32.7z M38.1,27c-0.6,0.6-1.7,1.2-3.9,1.2h-1.7
		l-0.6,4.6h-3l1.6-13.2h4.4c0.9,0,2.3,0,3.4,1.1c0.6,0.6,1.1,1.5,1.1,2.8C39.3,25,38.8,26.2,38.1,27z"/>
	<path class="st0" d="M44.6,23.4c-0.8,0.9-1.2,2.1-1.2,3.1c0,1.1,0.4,2.1,1,2.7s1.6,1,2.8,1c0.9,0,1.7-0.3,2.4-0.7
		c0.3-1.5,0.4-3,0.4-4.5c0-0.8,0-1.6-0.1-2.4c-0.5-0.3-1.3-0.5-2.2-0.5C46.4,22.1,45.4,22.5,44.6,23.4z"/>
</g>
</svg>
